<svg width="379" height="235" viewBox="0 0 379 235" fill="none" xmlns="http://www.w3.org/2000/svg">
<mask id="path-1-inside-1" fill="white">
<path fill-rule="evenodd" clip-rule="evenodd" d="M84 0C37.6081 0 0 37.6081 0 84C0 122.609 26.0477 155.134 61.5285 164.961L61.5285 235L126.584 168H295C341.392 168 379 130.392 379 84C379 37.6081 341.392 0 295 0H84Z"/>
</mask>
<path d="M61.5285 164.961L86.5285 164.961L86.5285 145.943L68.2012 140.867L61.5285 164.961ZM61.5285 235L36.5285 235L36.5285 296.635L79.4645 252.415L61.5285 235ZM126.584 168V143H116.012L108.648 150.585L126.584 168ZM25 84C25 51.4152 51.4152 25 84 25V-25C23.801 -25 -25 23.801 -25 84H25ZM68.2012 140.867C43.2688 133.962 25 111.082 25 84H-25C-25 134.135 8.82657 176.305 54.8557 189.054L68.2012 140.867ZM86.5285 235L86.5285 164.961L36.5285 164.961L36.5285 235L86.5285 235ZM108.648 150.585L43.5924 217.585L79.4645 252.415L144.52 185.415L108.648 150.585ZM295 143H126.584V193H295V143ZM354 84C354 116.585 327.585 143 295 143V193C355.199 193 404 144.199 404 84H354ZM295 25C327.585 25 354 51.4152 354 84H404C404 23.801 355.199 -25 295 -25V25ZM84 25H295V-25H84V25Z" fill="url(#paint0_linear)" mask="url(#path-1-inside-1)"/>
<path fill-rule="evenodd" clip-rule="evenodd" d="M135.638 82.4778C135.638 93.2351 126.093 101.956 114.319 101.956C102.545 101.956 93 93.2351 93 82.4778C93 71.7205 102.545 63 114.319 63C126.093 63 135.638 71.7205 135.638 82.4778ZM211.265 82.4778C211.265 93.2351 201.72 101.956 189.946 101.956C178.172 101.956 168.627 93.2351 168.627 82.4778C168.627 71.7205 178.172 63 189.946 63C201.72 63 211.265 71.7205 211.265 82.4778ZM265.319 101.956C277.093 101.956 286.638 93.2351 286.638 82.4778C286.638 71.7205 277.093 63 265.319 63C253.545 63 244 71.7205 244 82.4778C244 93.2351 253.545 101.956 265.319 101.956Z" fill="url(#paint1_linear)"/>
<defs>
<linearGradient id="paint0_linear" x1="-8.95432e-06" y1="265.974" x2="284.444" y2="-25.6921" gradientUnits="userSpaceOnUse">
<stop stop-color="#3DBFEC"/>
<stop offset="1" stop-color="#16EF9C"/>
</linearGradient>
<linearGradient id="paint1_linear" x1="269" y1="-85.5" x2="53" y2="312" gradientUnits="userSpaceOnUse">
<stop stop-color="#0AE28F"/>
<stop offset="1" stop-color="#62CEF1"/>
</linearGradient>
</defs>
</svg>
