<svg width="1603" height="264" viewBox="0 0 1603 264" fill="none" xmlns="http://www.w3.org/2000/svg">
<path d="M415.6 181.8L432.2 161C440.333 168.067 448.133 173.267 455.6 176.6C463.2 179.8 471.2 181.4 479.6 181.4C488.267 181.4 495.2 179.8 500.4 176.6C505.6 173.4 508.2 169.133 508.2 163.8C508.2 159 506.4 155.267 502.8 152.6C499.333 149.933 493.467 147.933 485.2 146.6L457.4 141.8C445.4 139.8 436.267 135.6 430 129.2C423.867 122.8 420.8 114.533 420.8 104.4C420.8 91.3333 425.733 81 435.6 73.4C445.6 65.8 459.067 62 476 62C486.133 62 496.333 63.7333 506.6 67.2C517 70.6667 526.067 75.4667 533.8 81.6L518.2 103.2C510.733 97.4667 503.4 93.2667 496.2 90.6C489 87.8 481.6 86.4 474 86.4C466.267 86.4 460.067 87.8667 455.4 90.8C450.733 93.6 448.4 97.4 448.4 102.2C448.4 106.467 449.933 109.8 453 112.2C456.067 114.6 461.2 116.333 468.4 117.4L494.8 121.8C508.667 124.067 519.067 128.533 526 135.2C533.067 141.733 536.6 150.4 536.6 161.2C536.6 174.8 531.2 185.667 520.4 193.8C509.733 201.933 495.467 206 477.6 206C466.4 206 455.333 203.867 444.4 199.6C433.6 195.333 424 189.4 415.6 181.8ZM552.167 245.8V99.8H579.167V108.4C583.301 105.067 587.901 102.6 592.967 101C598.034 99.2667 603.301 98.4 608.767 98.4C616.101 98.4 622.967 99.8 629.367 102.6C635.901 105.4 641.567 109.2 646.367 114C651.167 118.8 654.901 124.467 657.567 131C660.367 137.533 661.767 144.533 661.767 152C661.767 159.467 660.367 166.467 657.567 173C654.767 179.533 650.967 185.2 646.167 190C641.367 194.8 635.634 198.6 628.967 201.4C622.434 204.067 615.434 205.4 607.967 205.4C602.901 205.4 597.901 204.733 592.967 203.4C588.167 201.933 583.701 199.867 579.567 197.2V245.8H552.167ZM604.367 121.8C599.434 121.8 594.834 122.667 590.567 124.4C586.301 126 582.634 128.4 579.567 131.6V172.6C582.501 175.533 586.101 177.867 590.367 179.6C594.767 181.333 599.434 182.2 604.367 182.2C612.901 182.2 620.101 179.333 625.967 173.6C631.834 167.733 634.767 160.533 634.767 152C634.767 143.467 631.767 136.333 625.767 130.6C619.901 124.733 612.767 121.8 604.367 121.8ZM772.716 191C766.316 196.2 759.716 200 752.916 202.4C746.249 204.8 738.782 206 730.516 206C722.649 206 715.249 204.6 708.316 201.8C701.516 199 695.582 195.2 690.516 190.4C685.582 185.6 681.649 179.933 678.716 173.4C675.916 166.733 674.516 159.6 674.516 152C674.516 144.533 675.849 137.533 678.516 131C681.316 124.333 685.116 118.6 689.916 113.8C694.716 108.867 700.382 105 706.916 102.2C713.582 99.4 720.649 98 728.116 98C735.449 98 742.249 99.4667 748.516 102.4C754.916 105.2 760.382 109.067 764.916 114C769.582 118.933 773.182 124.867 775.716 131.8C778.382 138.6 779.716 146 779.716 154V161.2H702.116C703.982 167.733 707.582 173 712.916 177C718.249 181 724.516 183 731.716 183C736.249 183 740.516 182.267 744.516 180.8C748.516 179.333 751.916 177.267 754.716 174.6L772.716 191ZM727.516 120.6C721.249 120.6 715.849 122.533 711.316 126.4C706.782 130.133 703.649 135.2 701.916 141.6H752.916C751.182 135.467 747.982 130.467 743.316 126.6C738.782 122.6 733.516 120.6 727.516 120.6ZM829.113 205.8C817.913 205.8 808.779 202.867 801.713 197C794.646 191 791.113 183.267 791.113 173.8C791.113 163.933 794.913 156.2 802.513 150.6C810.113 145 820.579 142.2 833.913 142.2C838.179 142.2 842.446 142.533 846.713 143.2C850.979 143.867 855.179 144.867 859.313 146.2V138.8C859.313 132.8 857.446 128.267 853.713 125.2C849.979 122.133 844.513 120.6 837.313 120.6C832.913 120.6 828.113 121.333 822.913 122.8C817.846 124.133 812.046 126.267 805.513 129.2L795.513 109C803.646 105.267 811.513 102.467 819.113 100.6C826.846 98.7333 834.446 97.8 841.913 97.8C855.913 97.8 866.779 101.2 874.513 108C882.379 114.667 886.312 124.133 886.312 136.4V204H859.313V196.8C854.913 199.867 850.246 202.133 845.313 203.6C840.513 205.067 835.113 205.8 829.113 205.8ZM817.313 173.2C817.313 177.2 819.046 180.4 822.513 182.8C825.979 185.067 830.579 186.2 836.313 186.2C840.846 186.2 844.979 185.667 848.713 184.6C852.579 183.4 856.113 181.733 859.313 179.6V164C855.979 162.667 852.446 161.733 848.713 161.2C845.113 160.533 841.313 160.2 837.313 160.2C831.046 160.2 826.113 161.4 822.513 163.8C819.046 166.067 817.313 169.2 817.313 173.2ZM907.05 204V64L934.45 58V143.8L979.45 99.8H1010.45L961.65 147.6L1013.45 204H978.45L934.45 156.4V204H907.05ZM1011.53 191.6L1025.13 173.4C1031.26 177.4 1037.06 180.4 1042.53 182.4C1048 184.267 1053.46 185.2 1058.93 185.2C1065.06 185.2 1069.93 184.2 1073.53 182.2C1077.26 180.2 1079.13 177.533 1079.13 174.2C1079.13 171.533 1078.06 169.4 1075.93 167.8C1073.93 166.2 1070.66 165.067 1066.13 164.4L1046.13 161.4C1035.86 159.8 1028 156.467 1022.53 151.4C1017.2 146.333 1014.53 139.6 1014.53 131.2C1014.53 121.2 1018.46 113.2 1026.33 107.2C1034.2 101.2 1044.73 98.2 1057.93 98.2C1065.53 98.2 1072.93 99.3333 1080.13 101.6C1087.33 103.733 1094.2 106.933 1100.73 111.2L1087.53 128.8C1081.8 125.467 1076.33 123 1071.13 121.4C1065.93 119.667 1060.66 118.8 1055.33 118.8C1050.4 118.8 1046.4 119.733 1043.33 121.6C1040.4 123.467 1038.93 125.933 1038.93 129C1038.93 131.8 1040 134 1042.13 135.6C1044.4 137.067 1048.06 138.133 1053.13 138.8L1073.13 141.8C1083.26 143.267 1091.06 146.6 1096.53 151.8C1102.13 157 1104.93 163.6 1104.93 171.6C1104.93 176.533 1103.73 181.133 1101.33 185.4C1099.06 189.533 1095.93 193.133 1091.93 196.2C1087.93 199.267 1083.13 201.667 1077.53 203.4C1071.93 205.133 1065.86 206 1059.33 206C1049.86 206 1041 204.8 1032.73 202.4C1024.46 199.867 1017.4 196.267 1011.53 191.6ZM1118.57 204V99.8H1145.97V107.6C1149.71 104.4 1153.84 102 1158.37 100.4C1162.91 98.6667 1167.84 97.8 1173.17 97.8C1179.84 97.8 1185.84 99.2 1191.17 102C1196.64 104.667 1201.11 108.467 1204.57 113.4C1208.71 108.333 1213.71 104.467 1219.57 101.8C1225.44 99.1333 1231.91 97.8 1238.97 97.8C1250.57 97.8 1260.11 101.667 1267.57 109.4C1275.04 117.133 1278.77 127.067 1278.77 139.2V204H1251.37V143.2C1251.37 136.667 1249.57 131.4 1245.97 127.4C1242.51 123.4 1237.77 121.4 1231.77 121.4C1227.64 121.4 1223.84 122.333 1220.37 124.2C1217.04 125.933 1214.17 128.467 1211.77 131.8C1211.91 133 1212.04 134.2 1212.17 135.4C1212.31 136.6 1212.37 137.867 1212.37 139.2V204H1184.97V143.2C1184.97 136.667 1183.17 131.4 1179.57 127.4C1176.11 123.4 1171.37 121.4 1165.37 121.4C1161.24 121.4 1157.57 122.2 1154.37 123.8C1151.17 125.4 1148.37 127.733 1145.97 130.8V204H1118.57ZM1332.82 205.8C1321.62 205.8 1312.49 202.867 1305.42 197C1298.36 191 1294.82 183.267 1294.82 173.8C1294.82 163.933 1298.62 156.2 1306.22 150.6C1313.82 145 1324.29 142.2 1337.62 142.2C1341.89 142.2 1346.16 142.533 1350.42 143.2C1354.69 143.867 1358.89 144.867 1363.02 146.2V138.8C1363.02 132.8 1361.16 128.267 1357.42 125.2C1353.69 122.133 1348.22 120.6 1341.02 120.6C1336.62 120.6 1331.82 121.333 1326.62 122.8C1321.56 124.133 1315.76 126.267 1309.22 129.2L1299.22 109C1307.36 105.267 1315.22 102.467 1322.82 100.6C1330.56 98.7333 1338.16 97.8 1345.62 97.8C1359.62 97.8 1370.49 101.2 1378.22 108C1386.09 114.667 1390.02 124.133 1390.02 136.4V204H1363.02V196.8C1358.62 199.867 1353.96 202.133 1349.02 203.6C1344.22 205.067 1338.82 205.8 1332.82 205.8ZM1321.02 173.2C1321.02 177.2 1322.76 180.4 1326.22 182.8C1329.69 185.067 1334.29 186.2 1340.02 186.2C1344.56 186.2 1348.69 185.667 1352.42 184.6C1356.29 183.4 1359.82 181.733 1363.02 179.6V164C1359.69 162.667 1356.16 161.733 1352.42 161.2C1348.82 160.533 1345.02 160.2 1341.02 160.2C1334.76 160.2 1329.82 161.4 1326.22 163.8C1322.76 166.067 1321.02 169.2 1321.02 173.2ZM1410.76 204V99.8H1438.16V111.2C1441.49 106.667 1445.49 103.267 1450.16 101C1454.96 98.6 1460.23 97.4 1465.96 97.4C1468.63 97.5333 1470.83 97.8 1472.56 98.2C1474.43 98.4667 1476.03 99 1477.36 99.8V123.8C1475.36 122.867 1473.16 122.2 1470.76 121.8C1468.36 121.267 1465.89 121 1463.36 121C1458.03 121 1453.09 122.333 1448.56 125C1444.16 127.667 1440.69 131.533 1438.16 136.6V204H1410.76ZM1507.97 174.6V122.8H1486.57V99.8H1507.97V73.2L1535.37 67V99.8H1564.97V122.8H1535.37V169C1535.37 173.933 1536.44 177.4 1538.57 179.4C1540.7 181.4 1544.44 182.4 1549.77 182.4C1552.3 182.4 1554.7 182.267 1556.97 182C1559.24 181.6 1561.7 180.933 1564.37 180V202.4C1561.44 203.333 1557.9 204.067 1553.77 204.6C1549.64 205.267 1546.1 205.6 1543.17 205.6C1531.57 205.6 1522.77 203 1516.77 197.8C1510.9 192.467 1507.97 184.733 1507.97 174.6Z" fill="white"/>
<mask id="path-2-inside-1" fill="white">
<path fill-rule="evenodd" clip-rule="evenodd" d="M84 28C37.6081 28 0 65.6081 0 112C0 150.609 26.0477 183.134 61.5285 192.961L61.5285 264L126.899 196H295C341.392 196 379 158.392 379 112C379 65.6081 341.392 28 295 28H84Z"/>
</mask>
<path d="M61.5285 192.961H86.5285L86.5285 173.943L68.2012 168.867L61.5285 192.961ZM61.5285 264H36.5285L36.5284 326.079L79.5512 281.326L61.5285 264ZM126.899 196V171H116.254L108.876 178.674L126.899 196ZM25 112C25 79.4152 51.4152 53 84 53V3C23.801 3 -25 51.801 -25 112H25ZM68.2012 168.867C43.2688 161.962 25 139.082 25 112H-25C-25 162.135 8.82657 204.305 54.8557 217.054L68.2012 168.867ZM86.5285 264V192.961H36.5285L36.5285 264H86.5285ZM108.876 178.674L43.5057 246.674L79.5512 281.326L144.922 213.326L108.876 178.674ZM295 171H126.899V221H295V171ZM354 112C354 144.585 327.585 171 295 171V221C355.199 221 404 172.199 404 112H354ZM295 53C327.585 53 354 79.4152 354 112H404C404 51.801 355.199 3 295 3V53ZM84 53H295V3H84V53Z" fill="white" mask="url(#path-2-inside-1)"/>
<path fill-rule="evenodd" clip-rule="evenodd" d="M135.638 110.478C135.638 121.235 126.093 129.956 114.319 129.956C102.545 129.956 93 121.235 93 110.478C93 99.7205 102.545 91 114.319 91C126.093 91 135.638 99.7205 135.638 110.478ZM211.265 110.478C211.265 121.235 201.72 129.956 189.946 129.956C178.172 129.956 168.627 121.235 168.627 110.478C168.627 99.7205 178.172 91 189.946 91C201.72 91 211.265 99.7205 211.265 110.478ZM265.319 129.956C277.093 129.956 286.638 121.235 286.638 110.478C286.638 99.7205 277.093 91 265.319 91C253.545 91 244 99.7205 244 110.478C244 121.235 253.545 129.956 265.319 129.956Z" fill="white"/>
</svg>
